<?xml version="1.0" encoding="utf-8"?>
<!-- Generator: Adobe Illustrator 19.0.0, SVG Export Plug-In . SVG Version: 6.00 Build 0)  -->
<svg version="1.1" id="Layer_1" xmlns="http://www.w3.org/2000/svg" xmlns:xlink="http://www.w3.org/1999/xlink" x="0px" y="0px"
	 viewBox="0 0 266.1 146.8" style="enable-background:new 0 0 266.1 146.8;" xml:space="preserve">
<g id="XMLID_39_">
	<path id="XMLID_40_" d="M0,0h19.7v146.5H0V0z"/>
</g>
<g id="XMLID_36_">
	<path id="XMLID_37_" d="M34.7,0.2h19.7v146.5H34.7V0.2z"/>
</g>
<g id="XMLID_33_">
	<path id="XMLID_34_" d="M51.6,0.2h19.2l10.2,28.4c4,11.2,6.4,19.4,7.1,24.6c0.7-3.2,1.5-6.4,2.3-9.4s1.8-6.1,2.7-9.1l1.3-4.3
		l9.4-30.2h19.9L96.6,72.4l27.1,74.4h-19.9l-9.7-27.9c-2-5.6-3.5-10.6-4.7-15c-1.2-4.4-2.1-8.4-2.6-11.8c-0.5,4.2-1.4,8.3-2.6,12.1
		l-3.3,10.4l-1.7,5.5l-8.4,26.6H49.9l27.7-74.4L51.6,0.2z"/>
</g>
<g id="XMLID_30_">
	<path id="XMLID_31_" d="M122.6,0.2h19.7v146.5h-19.7V0.2z"/>
</g>
<g id="XMLID_27_">
	<path id="XMLID_28_" d="M158.8,0.2h19.7v146.5h-19.7V0.2z"/>
</g>
<g id="XMLID_24_">
	<path id="XMLID_25_" d="M175.1,0.2h19.5l8.8,54.1l1.5,9.8l3.1,21.3c0.5,3.6,1,6.9,1.4,9.9c0.4,3,0.8,5.7,1.1,8.1l0.9,7.2
		c0.2-1.5,0.3-2.8,0.5-3.9c0.1-1.1,0.3-2.1,0.4-2.8l2.6-17l3.3-22.3c0.3-2,0.6-3.9,0.9-5.6c0.3-1.7,0.6-3.2,0.8-4.6l9.5-54.1h18.4
		L219,146.8h-15.7L175.1,0.2z"/>
</g>
<g id="XMLID_21_">
	<path id="XMLID_22_" d="M246.3,0.2h19.7v146.5h-19.7V0.2z"/>
</g>
</svg>
