<?xml version="1.0" encoding="utf-8"?>
<!-- Generator: Adobe Illustrator 19.0.0, SVG Export Plug-In . SVG Version: 6.00 Build 0)  -->
<svg version="1.1" id="Layer_1" xmlns="http://www.w3.org/2000/svg" xmlns:xlink="http://www.w3.org/1999/xlink" x="0px" y="0px"
	 viewBox="0 0 333.8 202.9" style="enable-background:new 0 0 333.8 202.9;" xml:space="preserve">
<g id="XMLID_26_">
	<path id="XMLID_27_" d="M36.4,35.5h19.7V182H36.4V35.5z"/>
</g>
<g id="XMLID_23_">
	<path id="XMLID_24_" d="M71.1,35.7h19.7v146.5H71.1V35.7z"/>
</g>
<g id="XMLID_20_">
	<path id="XMLID_21_" d="M88,35.7h19.2l10.2,28.4c4,11.2,6.4,19.4,7.1,24.6c0.7-3.2,1.5-6.4,2.3-9.4s1.8-6.1,2.7-9.1l1.3-4.3
		l9.4-30.2h19.9L133,107.8l27.1,74.4h-19.9l-9.7-27.9c-2-5.6-3.5-10.6-4.7-15c-1.2-4.4-2.1-8.4-2.6-11.8c-0.5,4.2-1.4,8.3-2.6,12.1
		l-3.3,10.4l-1.7,5.5l-8.4,26.6H86.3l27.7-74.4L88,35.7z"/>
</g>
<g id="XMLID_17_">
	<path id="XMLID_18_" d="M159,35.7h19.7v146.5H159V35.7z"/>
</g>
<g id="XMLID_14_">
	<path id="XMLID_15_" d="M195.2,35.7H215v146.5h-19.7V35.7z"/>
</g>
<g id="XMLID_11_">
	<path id="XMLID_12_" d="M211.5,35.7H231l8.8,54.1l1.5,9.8l3.1,21.3c0.5,3.6,1,6.9,1.4,9.9c0.4,3,0.8,5.7,1.1,8.1l0.9,7.2
		c0.2-1.5,0.3-2.8,0.5-3.9c0.1-1.1,0.3-2.1,0.4-2.8l2.6-17l3.3-22.3c0.3-2,0.6-3.9,0.9-5.6c0.3-1.7,0.6-3.2,0.8-4.6l9.5-54.1h18.4
		l-28.8,146.5h-15.7L211.5,35.7z"/>
</g>
<g id="XMLID_3_">
	<path id="XMLID_9_" d="M282.8,35.7h19.7v146.5h-19.7V35.7z"/>
</g>
</svg>
